<svg width="77" height="48" viewBox="0 0 77 48" fill="none" xmlns="http://www.w3.org/2000/svg">
<g id="Instagram">
<g id="Instagram_2">
<rect id="Rectangle" width="77" height="48" rx="24" fill="white"/>
<path id="Vector" d="M30.4814 24C30.4814 21.2387 34.0713 18.9996 38.5009 18.9996C42.9306 18.9996 46.5224 21.2387 46.5224 24C46.5224 26.7613 42.9306 29.0004 38.5009 29.0004C34.0713 29.0004 30.4814 26.7613 30.4814 24ZM26.1451 24C26.1451 28.254 31.6768 31.7023 38.5009 31.7023C45.3251 31.7023 50.8567 28.254 50.8567 24C50.8567 19.746 45.3251 16.2977 38.5009 16.2977C31.6768 16.2977 26.1451 19.746 26.1451 24ZM48.4584 15.9923C48.4582 16.3483 48.6273 16.6963 48.9444 16.9924C49.2615 17.2885 49.7123 17.5193 50.2398 17.6557C50.7674 17.7921 51.3479 17.8279 51.9081 17.7586C52.4682 17.6892 52.9829 17.5179 53.3868 17.2663C53.7908 17.0147 54.066 16.694 54.1777 16.3449C54.2893 15.9957 54.2324 15.6338 54.014 15.3048C53.7957 14.9759 53.4258 14.6947 52.9511 14.4968C52.4763 14.2989 51.9181 14.1931 51.347 14.193H51.3459C50.5804 14.1932 49.8463 14.3828 49.3049 14.7202C48.7635 15.0576 48.4591 15.5151 48.4584 15.9923ZM28.7797 36.2096C26.4337 36.143 25.1586 35.8994 24.3112 35.6936C23.1878 35.421 22.3862 35.0963 21.5434 34.5716C20.7007 34.047 20.179 33.5478 19.7436 32.8475C19.4132 32.3195 19.0224 31.5244 18.9158 30.0619C18.7991 28.4808 18.7759 28.0058 18.7759 24.0001C18.7759 19.9944 18.8011 19.5208 18.9158 17.9383C19.0226 16.4759 19.4163 15.6823 19.7436 15.1528C20.1809 14.4524 20.7018 13.9528 21.5434 13.4274C22.385 12.902 23.1858 12.5768 24.3112 12.3054C25.1582 12.0995 26.4337 11.8559 28.7797 11.7894C31.3161 11.7167 32.078 11.7022 38.5009 11.7022C44.9239 11.7022 45.6866 11.7179 48.2251 11.7894C50.5711 11.856 51.8441 12.1014 52.6936 12.3054C53.817 12.5768 54.6186 12.9028 55.4613 13.4274C56.3041 13.952 56.8239 14.4524 57.2612 15.1528C57.5916 15.6808 57.9823 16.4759 58.089 17.9383C58.2056 19.5208 58.2289 19.9944 58.2289 24.0001C58.2289 28.0058 58.2056 28.4795 58.089 30.0619C57.9821 31.5244 57.5894 32.3192 57.2612 32.8475C56.8239 33.5478 56.303 34.0475 55.4613 34.5716C54.6197 35.0958 53.817 35.421 52.6936 35.6936C51.8466 35.8996 50.5711 36.1432 48.2251 36.2096C45.6887 36.2824 44.9268 36.2969 38.5009 36.2969C32.0751 36.2969 31.3153 36.2824 28.7797 36.2096ZM28.5805 9.09084C26.0189 9.16356 24.2685 9.41676 22.7398 9.78756C21.1567 10.1705 19.8165 10.6842 18.4773 11.5177C17.1381 12.3512 16.3161 13.188 15.7018 14.1749C15.107 15.1284 14.7008 16.219 14.5842 17.8158C14.4656 19.4152 14.4384 19.9265 14.4384 24C14.4384 28.0735 14.4656 28.5848 14.5842 30.1842C14.7008 31.7812 15.107 32.8716 15.7018 33.8251C16.3161 34.8114 17.1383 35.6491 18.4773 36.4823C19.8163 37.3154 21.1567 37.8284 22.7398 38.2124C24.2713 38.5832 26.0189 38.8364 28.5805 38.9092C31.1474 38.9819 31.9663 39 38.5009 39C45.0355 39 45.8558 38.9831 48.4214 38.9092C50.9832 38.8364 52.7325 38.5832 54.2621 38.2124C55.8442 37.8284 57.1854 37.3158 58.5246 36.4823C59.8638 35.6488 60.6841 34.8114 61.3001 33.8251C61.8949 32.8716 62.303 31.781 62.4177 30.1842C62.5344 28.5836 62.5615 28.0735 62.5615 24C62.5615 19.9265 62.5344 19.4152 62.4177 17.8158C62.3011 16.2188 61.8949 15.1278 61.3001 14.1749C60.6841 13.1886 59.8617 12.3526 58.5246 11.5177C57.1875 10.6829 55.8442 10.1705 54.264 9.78756C52.7325 9.41676 50.983 9.16236 48.4234 9.09084C45.8577 9.01812 45.0375 9 38.5029 9C31.9683 9 31.1474 9.01692 28.5805 9.09084Z" fill="black"/>
</g>
</g>
</svg>
