<svg width="79" height="48" viewBox="0 0 79 48" fill="none" xmlns="http://www.w3.org/2000/svg">
<g id="LinkedIn">
<g id="LinkedIn_2">
<rect id="Rectangle" x="0.838989" width="77.2947" height="48" rx="24" fill="white"/>
<g id="Group">
<path id="Path" d="M60.9436 35.3251C58.4074 35.2876 55.9316 35.2876 53.3953 35.3251C52.8519 35.3251 52.7311 35.2501 52.7311 34.9126C52.7311 32.1376 52.7311 29.3251 52.7311 26.5501C52.7311 25.9126 52.6707 25.2751 52.3688 24.6751C51.463 22.7251 47.8398 22.0126 45.2432 23.3251C43.8543 24.0001 43.3108 24.9376 43.3108 26.0626C43.3108 28.6876 43.3108 31.3126 43.3108 33.9376C43.3108 34.2751 43.2504 34.6126 43.3108 34.9876C43.3712 35.2876 43.1296 35.3626 42.7069 35.3251C40.1103 35.3251 37.5741 35.3251 34.9775 35.3251C34.4944 35.3251 34.3736 35.2501 34.3736 34.9501C34.434 32.5876 34.434 30.2251 34.434 27.8251C34.434 24.9001 34.434 21.9751 34.3736 19.0876C34.3736 18.7501 34.4944 18.6751 34.9775 18.6751C37.5741 18.6751 40.1103 18.6751 42.7069 18.6751C43.19 18.6751 43.3108 18.7501 43.3108 19.0501C43.3108 19.6501 43.3108 20.2501 43.3108 20.9626C43.492 20.8501 43.5523 20.8126 43.6127 20.7751C45.9678 18.6376 49.2891 18.0376 53.2142 18.4126C57.7432 18.8626 60.6417 20.8126 61.3663 23.8126C61.5475 24.5251 61.6079 25.2376 61.6079 25.9501C61.6079 28.9501 61.6079 31.9126 61.6079 34.9126C61.6079 35.2126 61.4871 35.3251 60.9436 35.3251Z" fill="black"/>
<path id="Path_2" d="M29.5427 27C29.5427 29.625 29.5427 32.25 29.5427 34.875C29.5427 35.2125 29.4219 35.325 28.8785 35.325C26.3422 35.2875 23.806 35.325 21.2698 35.325C20.7867 35.325 20.6659 35.25 20.6659 34.95C20.6659 29.6625 20.6659 24.3375 20.6659 19.05C20.6659 18.7875 20.7867 18.675 21.2698 18.675C23.8664 18.675 26.463 18.675 29.0596 18.675C29.6031 18.675 29.6635 18.7875 29.6635 19.0875C29.5427 21.7125 29.5427 24.3375 29.5427 27Z" fill="black"/>
<path id="Path_3" d="M29.9654 14.325C29.3615 15.825 26.8857 16.6875 24.0475 16.3875C21.0282 16.0875 19.3374 14.25 20.4243 12.45C21.149 11.325 22.9002 10.65 25.1345 10.6875C28.5161 10.65 30.7504 12.3375 29.9654 14.325Z" fill="black"/>
</g>
</g>
</g>
</svg>
